<?xml version="1.0" encoding="UTF-8"?>
<svg xmlns="http://www.w3.org/2000/svg" viewBox="0 0 408 480">
  <rect width="408" height="480" rx="36" fill="#fffaf0"/>
  <rect x="18" y="18" width="372" height="300" rx="28" fill="#3a2953"/>
  <g transform="translate(0,8)"><g transform="translate(84,44) scale(2.2)"><path fill="#BDDDF4" d="M18 1C8.059 1 0 7.268 0 15c0 4.368 2.574 8.268 6.604 10.835C6.08 28.144 4.859 31.569 2 35c5.758-.96 9.439-3.761 11.716-6.416 1.376.262 2.805.416 4.284.416 9.941 0 18-6.268 18-14S27.941 1 18 1z"/><circle fill="#2A6797" cx="18" cy="15" r="2"/><circle fill="#2A6797" cx="26" cy="15" r="2"/><circle fill="#2A6797" cx="10" cy="15" r="2"/></g></g>
  <text x="204" y="360" text-anchor="middle" font-family="Nunito, Trebuchet MS, sans-serif"
        font-size="42" font-weight="800" fill="#3a2953">chat</text>
  <text x="204" y="408" text-anchor="middle" font-family="Nunito, Trebuchet MS, sans-serif"
        font-size="26" fill="#241a30" opacity="0.55">болтать</text>
</svg>
