<?xml version="1.0" encoding="UTF-8"?>
<svg xmlns="http://www.w3.org/2000/svg" viewBox="0 0 408 480">
  <rect width="408" height="480" rx="36" fill="#fffaf0"/>
  <rect x="18" y="18" width="372" height="300" rx="28" fill="#3a2953"/>
  <g transform="translate(0,8)"><g transform="translate(84,44) scale(2.2)"><path fill="#9AAAB4" d="M27.388 24.642L24.56 27.47l-4.95-4.95 2.828-2.828z"/><path fill="#66757F" d="M34.683 29.11l-5.879-5.879c-.781-.781-2.047-.781-2.828 0l-2.828 2.828c-.781.781-.781 2.047 0 2.828l5.879 5.879c1.562 1.563 4.096 1.563 5.658 0 1.56-1.561 1.559-4.094-.002-5.656z"/><circle fill="#8899A6" cx="13.586" cy="13.669" r="13.5"/><circle fill="#BBDDF5" cx="13.586" cy="13.669" r="9.5"/></g></g>
  <text x="204" y="360" text-anchor="middle" font-family="Nunito, Trebuchet MS, sans-serif"
        font-size="42" font-weight="800" fill="#3a2953">join</text>
  <text x="204" y="408" text-anchor="middle" font-family="Nunito, Trebuchet MS, sans-serif"
        font-size="26" fill="#241a30" opacity="0.55">соединять</text>
</svg>
