<?xml version="1.0" encoding="UTF-8"?>
<svg xmlns="http://www.w3.org/2000/svg" viewBox="0 0 408 480">
  <rect width="408" height="480" rx="36" fill="#fffaf0"/>
  <rect x="18" y="18" width="372" height="300" rx="28" fill="#3a2953"/>
  <g transform="translate(0,8)"><g transform="translate(84,44) scale(2.2)"><path fill="#C6E5B3" d="M36 22c0 7.456-8.059 12-18 12S0 29.456 0 22 8.059 7 18 7s18 7.544 18 15z"/><path fill="#77B255" d="M31.755 12.676C33.123 11.576 34 9.891 34 8c0-3.313-2.687-6-6-6-2.861 0-5.25 2.004-5.851 4.685-1.288-.483-2.683-.758-4.149-.758-1.465 0-2.861.275-4.149.758C13.25 4.004 10.861 2 8 2 4.687 2 2 4.687 2 8c0 1.891.877 3.576 2.245 4.676C1.6 15.356 0 18.685 0 22c0 7.456 8.059 1 18 1s18 6.456 18-1c0-3.315-1.6-6.644-4.245-9.324z"/><circle fill="#FFF" cx="7.5" cy="7.5" r="3.5"/><circle fill="#292F33" cx="7.5" cy="7.5" r="1.5"/><circle fill="#FFF" cx="28.5" cy="7.5" r="3.5"/><circle fill="#292F33" cx="28.5" cy="7.5" r="1.5"/><circle fill="#5C913B" cx="14" cy="20" r="1"/><circle fill="#5C913B" cx="22" cy="20" r="1"/></g></g>
  <text x="204" y="360" text-anchor="middle" font-family="Nunito, Trebuchet MS, sans-serif"
        font-size="42" font-weight="800" fill="#3a2953">toad</text>
  <text x="204" y="408" text-anchor="middle" font-family="Nunito, Trebuchet MS, sans-serif"
        font-size="26" fill="#241a30" opacity="0.55">жаба</text>
</svg>
